<svg xmlns="http://www.w3.org/2000/svg" style="display: none;">
    <defs>
        <symbol id="send" width="24" height="24" viewBox="0 0 24 24">
            <path fill="currentColor" d="M2.01 21 23 12 2.01 3 2 10l15 2-15 2 .01 7Z"/>
        </symbol>
        <symbol id="arrow-right" width="24" height="24" viewBox="0 0 24 24">
            <path fill="currentColor" d="m14.2 4.8 6.5 6.5.71.7-.7.7-6.5 6.5-1.42-1.4 4.8-4.8H3v-2h14.59l-4.8-4.8 1.42-1.4Z"/>
        </symbol>
        <symbol id="chevron-right" width="24" height="24" viewBox="0 0 24 24">
            <path fill="currentColor" d="m13.59 12-5.8-5.8 1.42-1.4 6.5 6.5.7.7-.7.7-6.5 6.5-1.42-1.4 5.8-5.8Z"/>
        </symbol>
        <symbol id="github" width="24" height="24" viewBox="0 0 24 24">
            <path fill="currentColor" d="M12 2a10 10 0 0 0-3.16 19.5c.5.08.66-.23.66-.5v-1.69c-2.77.6-3.36-1.34-3.36-1.34-.46-1.16-1.11-1.47-1.11-1.47-.91-.62.07-.6.07-.6 1 .07 1.53 1.03 1.53 1.03.87 1.52 2.34 1.07 2.91.83.09-.65.35-1.09.63-1.34-2.22-.25-4.55-1.11-4.55-4.92 0-1.11.38-2 1.03-2.71-.1-.25-.45-1.29.1-2.64 0 0 .84-.27 2.75 1.02a9.42 9.42 0 0 1 5 0c1.91-1.29 2.75-1.02 2.75-1.02.55 1.35.2 2.39.1 2.64.65.71 1.03 1.6 1.03 2.71 0 3.82-2.34 4.66-4.57 4.91.36.31.69.92.69 1.85V21c0 .27.16.59.67.5a10.03 10.03 0 0 0 3.9-16.57A10 10 0 0 0 12 2Z"/>
        </symbol>
        <symbol id="menu" width="24" height="24" viewBox="0 0 24 24">
            <path fill="currentColor" d="M22 6H2V4h20v2ZM2 13h16v-2H2v2Zm0 7h20v-2H2v2Z"/>
        </symbol>
        <symbol id="figma" width="24" height="24" viewBox="0 0 24 24">
            <path fill="currentColor" fill-rule="evenodd" d="M15 10a2 2 0 1 0 0 4 2 2 0 0 0 0-4Zm-2 5.46A4 4 0 0 0 17.65 9a4.01 4.01 0 0 0 .18-5.83A4 4 0 0 0 15 2H9a4 4 0 0 0-2.65 7 4.01 4.01 0 0 0 0 6A3.98 3.98 0 0 0 5 18a4 4 0 1 0 8 0v-2.54ZM11 16H9a2 2 0 1 0 2 2v-2ZM9 8h2V4H9a2 2 0 1 0 0 4Zm0 2a2 2 0 1 0 0 4h2v-4H9Zm4-2V4h2a2 2 0 0 1 0 4h-2Z"/>
        </symbol>
        <symbol id="copy" width="24" height="24" viewBox="0 0 24 24">
            <path fill="currentColor" d="M3 2h12v4H7v10H3V2Zm6 20V8h12v11l-3 3H9Z"/>
        </symbol>
        <symbol id="error" width="24" height="24" viewBox="0 0 24 24">
            <path fill="currentColor" d="M19.7 19H4.3L12 5.07 19.7 19ZM11.12 2.52l-9.39 17L2.61 21h18.78l.88-1.48-9.4-17h-1.75ZM11 14v-4h2v4h-2Zm0 3v-2h2v2h-2Z"/>
        </symbol>
        <symbol id="arrow-left" width="24" height="24" viewBox="0 0 24 24">
            <path fill="currentColor" d="m9.8 19.2-6.5-6.5-.71-.7.7-.7 6.5-6.5 1.42 1.4L6.4 11H21v2H6.41l4.8 4.8-1.42 1.4Z"/>
        </symbol>
        <symbol id="check" width="24" height="24" viewBox="0 0 24 24">
            <path fill="currentColor" d="m20.2 7.2-10 10-.7.71-.7-.7-5-5 1.4-1.42 4.3 4.3 9.3-9.3 1.4 1.42Z"/>
        </symbol>
        <symbol id="link" width="24" height="24" viewBox="0 0 24 24">
            <path fill="currentColor" d="M9 4 8 5v2h2V6h10v7H10v-2H8v3l1 1h12l1-1V5l-1-1H9Zm2 4H3L2 9v9l1 1h12l1-1v-2h-2v1H4v-7h10v2h2V9l-1-1h-4Z"/>
        </symbol>
        <symbol id="close" width="24" height="24" viewBox="0 0 24 24">
            <path fill="currentColor" d="M19 6.41 17.59 5 12 10.59 6.41 5 5 6.41 10.59 12 5 17.59 6.41 19 12 13.41 17.59 19 19 17.59 13.41 12 19 6.41Z"/>
        </symbol>
        <symbol id="pause" width="24" height="24" viewBox="0 0 24 24">
            <path fill="currentColor" d="M6 19h4V5H6v14Zm8-14v14h4V5h-4Z"/>
        </symbol>
        <symbol id="play" width="24" height="24" viewBox="0 0 24 24">
            <path fill="currentColor" d="M8 5v14l11-7L8 5Z"/>
        </symbol>
        <symbol id="bluesky" width="24" height="24" viewBox="0 0 24 24">
            <path fill="currentColor" d="M6.34 3.78C8.63 5.51 11.09 9.01 12 10.9v4.96c0-.1-.04.02-.13.27-.47 1.4-2.32 6.83-6.54 2.49-2.22-2.29-1.19-4.58 2.86-5.27-2.32.4-4.92-.26-5.63-2.82C2.35 9.8 2 5.25 2 4.64c0-3.07 2.68-2.1 4.34-.86Zm11.32 0C15.37 5.51 12.91 9.01 12 10.9v4.96c0-.1.04.02.13.27.47 1.4 2.32 6.83 6.54 2.49 2.22-2.29 1.19-4.58-2.86-5.27 2.32.4 4.92-.26 5.63-2.82.21-.73.56-5.27.56-5.88 0-3.07-2.68-2.1-4.34-.86Z"/>
        </symbol>
        <symbol id="nexus" width="24" height="24" viewBox="0 0 24 24">
            <path d="M43.915,31.443C44.607,29.418,45,27.256,45,25c0-3.643-0.995-7.051-2.704-9.996c0.111-0.11,0.2-0.242,0.251-0.395 c1.193-3.617,0.084-6.058,0.037-6.16c-0.027-0.057-0.073-0.098-0.109-0.148c-0.074-0.151-0.176-0.288-0.32-0.388 c-0.033-0.022-3.273-2.258-5.584-3.752c-0.183-0.118-0.397-0.17-0.615-0.158c-1.687,0.122-3.197,0.938-4.516,2.081 C29.415,5.392,27.255,5,25,5c-3.656,0-7.075,1.003-10.027,2.723c-0.098-0.082-0.207-0.152-0.333-0.192 C11.7,6.598,9.568,7.128,8.816,7.382C8.481,7.37,8.153,7.519,7.955,7.804c-0.022,0.032-2.259,3.274-3.753,5.584 c-0.118,0.182-0.173,0.398-0.157,0.615c0.121,1.678,0.928,3.181,2.061,4.496C5.401,20.541,5,22.722,5,25 c0,3.623,0.983,7.014,2.674,9.947c-0.096,0.103-0.175,0.222-0.221,0.36c-1.193,3.616-0.085,6.058-0.037,6.16 c0.027,0.058,0.074,0.1,0.111,0.151c0.074,0.149,0.175,0.285,0.318,0.384c0.032,0.022,3.273,2.259,5.584,3.754 c0.162,0.104,0.351,0.16,0.543,0.16c0.024,0,0.048-0.001,0.072-0.003c1.658-0.12,3.146-0.91,4.449-2.022 C20.537,44.598,22.72,45,25,45c3.645,0,7.055-0.996,10.001-2.706c0.101,0.091,0.216,0.167,0.349,0.211 c1.256,0.415,2.369,0.552,3.292,0.552c1.737,0,2.801-0.484,2.867-0.516c0.046-0.021,0.079-0.061,0.121-0.089 c0.163-0.073,0.309-0.185,0.415-0.339c0.022-0.033,2.259-3.274,3.753-5.585c0.118-0.183,0.173-0.398,0.157-0.615 C45.835,34.246,45.037,32.751,43.915,31.443z M5.872,13.974c1.512-2.319,3.246-4.711,3.246-4.711s0.305,5.013,8.197,9.19 l2.504-3.925l2.104,8.561l-8.91,2.19l1.762-2.821C11.998,21.129,6.816,18.061,5.872,13.974z M22.381,35.081 c-1.349,2.767-4.456,7.926-8.549,8.839c-2.307-1.529-4.687-3.281-4.687-3.281s5.015-0.268,9.251-8.128l-3.948-2.56l8.641-2.124 l2.244,9.128L22.381,35.081z M24.466,12.989l2.876,1.767c1.307-2.786,4.337-7.991,8.416-8.965c2.33,1.495,4.735,3.211,4.735,3.211 s-5.011,0.342-9.128,8.265l4.008,2.515l-8.711,2.141L24.466,12.989z M40.813,40.556c0,0-0.323-5.012-8.229-9.16l-2.587,4.088 l-2.169-8.822l9.117-2.241l-1.835,2.961c2.781,1.318,7.974,4.368,8.933,8.451C42.538,38.157,40.813,40.556,40.813,40.556z"></path>
        </symbol>
    </defs>
</svg>