<?xml version="1.0" encoding="UTF-8"?>
<svg id="Layer_1" data-name="Layer 1" xmlns="http://www.w3.org/2000/svg" viewBox="0 0 60.44 35.42">
    <path d="M37.44,25.11v9.74c0,.2-.38.6-.63.57h-11.43l-.36-.08L5.07,11.39s-.14-.06-.22-.08c-.25-.05-2.19-.03-2.35.03-.05.02-.13.11-.14.14l11.5,13.95.05,9.42c-.05.36-.24.58-.63.57l-13.02-.06-.27-.27V.47C.19.17.46.12.8.09,4.11-.19,7.83.31,11.19.09l.52.16,19.75,23.78.27.19h2.54l.11-.17-10.94-13.25-.03-9.98c0-.25.09-.46.32-.57l25.18-.06c7.77.6,12.67,8.64,9.23,15.81-.93,1.94-3.06,4.25-5.06,5.09-.68.28-.76.17-1.21-.33l-7.69-9.27c-.09-.08-.22-.16-.35-.16-.54-.03-1.34.06-1.94.05-.13,0-.25,0-.38-.06-.13.06-.13.17-.09.3l18.74,22.57c.46.46.38,1.06-.25,1.23h-13.58l-8.53-10.23-.33-.08-.02.02Z"/>
</svg>