<svg xmlns="http://www.w3.org/2000/svg" width="960" height="1280" viewBox="0 0 960 1280"><rect width="100%" height="100%" fill="#DDDDDD"/><path fill="#999999" d="M208.1 623.67q0 6.84 3.53 10.43 3.53 3.58 10.03 3.58 3.39 0 6.04-1.07 2.66-1.07 4.46-2.94 1.81-1.86 2.75-4.4.93-2.55.93-5.49 0-3.33-1.02-5.96-1.02-2.62-2.88-4.43-1.87-1.81-4.44-2.77t-5.62-.96q-3.16 0-5.7 1.05-2.55 1.04-4.36 2.91-1.8 1.86-2.76 4.43t-.96 5.62m-6.84 57.18 25.37-31.7q.96-1.18 1.81-2.31.84-1.13 1.63-2.26-2.82 1.8-6.21 2.74-3.39.93-7.12.93-4.24 0-8.31-1.47-4.06-1.47-7.23-4.43-3.16-2.97-5.11-7.35t-1.95-10.25q0-5.49 2.03-10.29 2.04-4.8 5.71-8.42 3.67-3.61 8.81-5.7 5.15-2.09 11.36-2.09 6.27 0 11.27 1.97 5 1.98 8.53 5.54 3.54 3.56 5.43 8.53t1.89 10.91q0 3.78-.65 7.17t-1.83 6.53q-1.19 3.13-2.89 6.13-1.69 2.99-3.78 5.93l-18.7 26.67q-.96 1.36-2.88 2.29-1.93.93-4.36.93zm107.46-81.7-24.24 29.66-2.82 3.51q2.37-1.19 5.11-1.84t5.91-.65q4.63 0 9.01 1.53 4.38 1.52 7.71 4.6t5.37 7.66q2.03 4.57 2.03 10.68 0 5.7-2.09 10.7t-5.87 8.73q-3.79 3.73-9.13 5.88-5.34 2.14-11.78 2.14-6.55 0-11.75-2.09t-8.87-5.84q-3.67-3.76-5.62-9.04-1.95-5.29-1.95-11.73 0-5.76 2.34-11.83 2.35-6.08 7.26-12.63l19.49-26.16q1.02-1.36 2.97-2.32t4.49-.96zm-21.07 71.19q3.33 0 6.13-1.13 2.79-1.13 4.8-3.16 2.01-2.04 3.14-4.78t1.13-5.96q0-3.5-1.08-6.3-1.07-2.79-3.05-4.74t-4.74-2.97q-2.77-1.02-6.11-1.02-3.33 0-6.04 1.13t-4.63 3.14q-1.93 2-3 4.74t-1.07 5.91q0 3.39.93 6.19.93 2.79 2.77 4.77 1.83 1.98 4.55 3.08 2.71 1.1 6.27 1.1m95.6-30.34q0 10.68-2.29 18.56t-6.33 13.02q-4.04 5.15-9.55 7.66t-11.89 2.51q-6.39 0-11.84-2.51t-9.46-7.66q-4.01-5.14-6.27-13.02T323.36 640q0-10.73 2.26-18.59 2.26-7.85 6.27-12.99t9.46-7.66q5.45-2.51 11.84-2.51 6.38 0 11.89 2.51 5.51 2.52 9.55 7.66t6.33 12.99q2.29 7.86 2.29 18.59m-14.41 0q0-8.87-1.3-14.69t-3.48-9.27q-2.17-3.44-5-4.83-2.82-1.38-5.87-1.38-3 0-5.79 1.38-2.8 1.39-4.95 4.83-2.14 3.45-3.42 9.27-1.27 5.82-1.27 14.69t1.27 14.69q1.28 5.82 3.42 9.27 2.15 3.44 4.95 4.83 2.79 1.38 5.79 1.38 3.05 0 5.87-1.38 2.83-1.39 5-4.83 2.18-3.45 3.48-9.27t1.3-14.69m104.13 22.15-7.4 7.29-19.16-19.16-19.32 19.27-7.4-7.29 19.32-19.38-18.42-18.42 7.35-7.34 18.42 18.42 18.3-18.31 7.46 7.35-18.36 18.36zm77.35 8.25h14.69v10.45h-45.2V670.4h16.55v-47.63q0-2.83.17-5.82l-11.75 9.83q-1.02.79-2.01.99t-1.86.03q-.88-.17-1.56-.6-.67-.42-1.01-.93l-4.41-6.04 24.92-21.19h11.47zm56.21-2.55h20.97q2.26 0 3.58 1.28 1.33 1.27 1.33 3.36v8.36h-56.05v-4.63q0-1.42.6-2.97.59-1.55 1.89-2.8l24.8-24.86q3.11-3.16 5.57-6.04t4.09-5.71q1.64-2.82 2.52-5.73.87-2.91.87-6.13 0-2.94-.84-5.17-.85-2.23-2.4-3.76-1.56-1.53-3.73-2.29-2.18-.76-4.89-.76-2.49 0-4.61.71-2.11.7-3.75 1.97t-2.77 2.97q-1.13 1.69-1.7 3.73-.96 2.6-2.48 3.44-1.53.85-4.41.4l-7.34-1.3q.84-5.88 3.27-10.31 2.43-4.44 6.08-7.4 3.64-2.97 8.36-4.47 4.72-1.49 10.14-1.49 5.65 0 10.34 1.66 4.69 1.67 8.02 4.72 3.34 3.05 5.2 7.35 1.87 4.29 1.87 9.54 0 4.53-1.33 8.37t-3.56 7.34-5.23 6.78q-2.99 3.28-6.27 6.67l-18.42 18.81q2.66-.79 5.28-1.21 2.63-.43 5-.43m63.85 3q3.45 0 6.04-.99 2.6-.99 4.38-2.74t2.69-4.18q.9-2.43.9-5.25 0-6.73-3.73-10.18-3.73-3.44-10.28-3.44t-10.28 3.44q-3.73 3.45-3.73 10.18 0 2.82.9 5.25.91 2.43 2.68 4.18 1.78 1.75 4.38 2.74t6.05.99m0-62.09q-3.11 0-5.37.96t-3.76 2.57q-1.49 1.61-2.2 3.7t-.71 4.41q0 2.42.6 4.71.59 2.29 2 4.07 1.42 1.78 3.73 2.85 2.32 1.08 5.71 1.08t5.71-1.08q2.31-1.07 3.72-2.85 1.42-1.78 2.01-4.07t.59-4.71q0-2.32-.73-4.41-.74-2.09-2.2-3.7-1.47-1.61-3.73-2.57t-5.37-.96m13.79 29.49q7.45 2.43 11.01 7.43t3.56 12.23q0 5.42-2.06 9.83t-5.79 7.52q-3.73 3.1-8.96 4.8-5.22 1.69-11.55 1.69t-11.56-1.69q-5.22-1.7-8.95-4.8-3.73-3.11-5.79-7.52t-2.06-9.83q0-7.23 3.56-12.23t11.01-7.43q-5.93-2.49-8.9-7.06-2.96-4.58-2.96-11.02 0-4.63 1.89-8.65 1.89-4.01 5.28-6.97 3.39-2.97 8.11-4.64 4.72-1.66 10.37-1.66t10.37 1.66q4.71 1.67 8.1 4.64 3.39 2.96 5.29 6.97 1.89 4.02 1.89 8.65 0 6.44-2.97 11.02-2.96 4.57-8.89 7.06m81.69 1.75q0 10.68-2.28 18.56-2.29 7.88-6.33 13.02-4.04 5.15-9.55 7.66t-11.89 2.51q-6.39 0-11.84-2.51t-9.46-7.66q-4.02-5.14-6.28-13.02T705.97 640q0-10.73 2.26-18.59 2.26-7.85 6.28-12.99 4.01-5.14 9.46-7.66 5.45-2.51 11.84-2.51 6.38 0 11.89 2.51 5.51 2.52 9.55 7.66t6.33 12.99q2.28 7.86 2.28 18.59m-14.4 0q0-8.87-1.3-14.69t-3.48-9.27q-2.17-3.44-5-4.83-2.82-1.38-5.87-1.38-3 0-5.8 1.38-2.79 1.39-4.94 4.83-2.15 3.45-3.42 9.27T720.38 640t1.27 14.69 3.42 9.27q2.15 3.44 4.94 4.83 2.8 1.38 5.8 1.38 3.05 0 5.87-1.38 2.83-1.39 5-4.83 2.18-3.45 3.48-9.27t1.3-14.69"/></svg>